<?xml version="1.0" standalone="no"?>
<!DOCTYPE svg PUBLIC "-//W3C//DTD SVG 20010904//EN"
 "http://www.w3.org/TR/2001/REC-SVG-20010904/DTD/svg10.dtd">
<svg version="1.0" xmlns="http://www.w3.org/2000/svg"
 width="700.000000pt" height="700.000000pt" viewBox="0 0 700.000000 700.000000"
 preserveAspectRatio="xMidYMid meet">
<metadata>
Created by potrace 1.11, written by Peter Selinger 2001-2013
</metadata>
<g transform="translate(0.000000,700.000000) scale(0.100000,-0.100000)"
fill="#000000" stroke="none">
<path d="M3370 6647 c-3 -3 -41 -7 -85 -11 -44 -3 -91 -8 -105 -10 -14 -3 -47
-7 -75 -11 -290 -36 -683 -161 -980 -313 -537 -274 -966 -673 -1301 -1207
-155 -248 -324 -660 -379 -925 -2 -8 -8 -35 -15 -60 -15 -56 -15 -56 -34 -181
-34 -216 -41 -308 -41 -534 0 -162 5 -247 20 -405 3 -28 13 -95 19 -125 2 -11
11 -60 21 -110 36 -193 116 -455 200 -649 367 -856 1078 -1514 1959 -1811 60
-20 116 -38 125 -40 9 -2 70 -17 136 -34 124 -31 139 -33 265 -52 41 -6 86
-13 100 -15 165 -25 629 -25 766 0 10 2 46 7 79 12 33 4 62 8 65 9 3 0 28 5
55 10 28 5 52 9 55 10 7 2 123 28 135 31 159 31 513 166 705 267 150 80 450
271 480 307 3 3 25 21 50 40 112 86 326 292 421 405 19 22 36 42 39 45 45 44
290 387 290 406 0 4 7 15 15 24 25 28 180 341 223 450 92 236 164 489 188 660
2 19 6 44 9 55 2 11 7 43 10 70 3 28 8 64 10 80 17 125 23 475 11 600 -3 33
-9 85 -12 115 -49 492 -245 1035 -519 1440 -72 106 -127 184 -135 190 -3 3
-19 23 -35 45 -17 22 -32 42 -35 45 -3 3 -34 39 -70 80 -322 372 -730 662
-1225 871 -120 51 -319 112 -485 150 -163 36 -168 37 -380 65 -54 7 -534 17
-540 11z m425 -1297 c120 -23 179 -39 265 -75 202 -84 405 -240 552 -425 88
-110 140 -200 229 -395 38 -84 92 -287 104 -395 3 -30 9 -68 12 -85 11 -52 9
-2876 -2 -2891 -15 -19 -201 -118 -327 -172 -94 -41 -302 -115 -358 -127 -8
-2 -53 -13 -100 -24 -47 -11 -119 -25 -160 -31 -41 -6 -86 -13 -100 -16 -103
-17 -365 -22 -536 -11 -96 7 -298 37 -374 57 -19 5 -46 11 -60 14 -45 8 -240
70 -275 86 -11 5 -46 19 -77 30 -71 26 -345 164 -369 186 -17 15 -18 90 -17
1427 1 1098 4 1435 14 1517 57 460 286 863 629 1109 144 103 351 194 495 217
19 3 53 9 75 13 81 15 277 10 380 -9z"/>
<path d="M3179 3864 c-80 -51 -71 -163 16 -200 86 -36 176 67 131 150 -31 57
-99 80 -147 50z"/>
<path d="M3971 3867 c-56 -28 -80 -91 -55 -143 39 -82 143 -90 187 -14 57 96
-36 207 -132 157z"/>
<path d="M2946 3087 c-43 -34 -43 -77 -2 -140 113 -175 313 -311 517 -352 66
-13 237 -12 305 2 81 17 186 59 269 109 76 47 190 163 238 245 45 75 43 111
-10 140 -45 25 -69 14 -115 -54 -58 -85 -103 -132 -174 -183 -123 -88 -244
-125 -389 -119 -108 4 -129 8 -209 41 -124 50 -225 135 -301 253 -57 89 -78
98 -129 58z"/>
</g>
</svg>
