<?xml version="1.0" encoding="utf-8"?>
<!-- Generator: Adobe Illustrator 16.0.0, SVG Export Plug-In . SVG Version: 6.00 Build 0)  -->
<!DOCTYPE svg PUBLIC "-//W3C//DTD SVG 1.1//EN" "http://www.w3.org/Graphics/SVG/1.1/DTD/svg11.dtd">
<svg version="1.1" id="Layer_1" xmlns="http://www.w3.org/2000/svg" xmlns:xlink="http://www.w3.org/1999/xlink" x="0px" y="0px"
	 width="500px" height="500px" viewBox="600 450 350 380"  xml:space="preserve">
<g>
	<g>
		<g>
			<defs>
				<path id="SVGID_1_" d="M715.192,637.237c-6.572,4.538-9.384,10.497-12.016,19.261c-3.146,10.474-5.584,18.974-8.163,27.977
					c-1.666,5.812-3.386,11.82-5.438,18.859c-0.743,2.54-1.478,5.205-2.254,8.023c-4.645,16.843-14.552,49.781-26.968,60.142
					c-2.473,2.062-5.256,3.61-8.198,4.635c12.146-1.146,21.037-6.104,26.998-15.006c7.289-10.89,15.56-37.896,19.215-51.151
					c0.776-2.821,1.511-5.484,2.255-8.035c0.357-1.224,0.704-2.416,1.043-3.584c0.004-0.101,0.034-0.194,0.081-0.279
					c1.583-5.45,2.979-10.32,4.337-15.061c2.573-8.979,5.004-17.467,8.146-27.918c4.461-14.844,14.896-22.109,29.401-27.092
					C729.942,630.301,721.008,633.222,715.192,637.237"/>
			</defs>
			<clipPath id="SVGID_2_">
				<use xlink:href="#SVGID_1_"  overflow="visible"/>
			</clipPath>
			
				<linearGradient id="SVGID_3_" gradientUnits="userSpaceOnUse" x1="-1274.0923" y1="1321.8906" x2="-1273.0923" y2="1321.8906" gradientTransform="matrix(-18.6581 -132.7591 -132.7591 18.6581 152428.1094 -193042.6562)">
				<stop  offset="0" style="stop-color:#000000"/>
				<stop  offset="0.0943" style="stop-color:#000000"/>
				<stop  offset="0.1515" style="stop-color:#00070E"/>
				<stop  offset="0.1961" style="stop-color:#00192A"/>
				<stop  offset="0.2366" style="stop-color:#002B42"/>
				<stop  offset="0.2746" style="stop-color:#003B58"/>
				<stop  offset="0.3108" style="stop-color:#004D70"/>
				<stop  offset="0.3458" style="stop-color:#006089"/>
				<stop  offset="0.3797" style="stop-color:#0075A6"/>
				<stop  offset="0.4119" style="stop-color:#008DC9"/>
				<stop  offset="0.4351" style="stop-color:#009CDE"/>
				<stop  offset="0.4795" style="stop-color:#49BBEA"/>
				<stop  offset="0.531" style="stop-color:#A4D9F4"/>
				<stop  offset="0.5736" style="stop-color:#DAEFFA"/>
				<stop  offset="0.605" style="stop-color:#F7FBFE"/>
				<stop  offset="0.6219" style="stop-color:#FFFFFF"/>
				<stop  offset="1" style="stop-color:#FFFFFF"/>
			</linearGradient>
			<polygon clip-path="url(#SVGID_2_)" fill="url(#SVGID_3_)" points="764.045,773.266 741.858,615.4 631.741,630.876 
				653.927,788.74 			"/>
		</g>
	</g>
	<g>
		<g>
			<defs>
				<path id="SVGID_4_" d="M736.927,471.263c-9.421,14.244-7.425,36.146-5.82,53.741c0.227,2.479,0.439,4.823,0.617,7.078
					c2.707,34.602,2.315,50.683-12.717,70.66c-4.884,6.49-11.828,10.169-18.958,13.036c12.839-2.764,23.99-10.221,30.505-18.878
					c14.774-19.637,15.151-35.546,12.471-69.818c-0.205-2.633-0.483-5.453-0.777-8.437c-2.153-21.835-5.1-51.738,16.136-61.041
					c0.396-0.171,0.794-0.325,1.197-0.47C751.542,458.166,742.903,462.221,736.927,471.263"/>
			</defs>
			<clipPath id="SVGID_5_">
				<use xlink:href="#SVGID_4_"  overflow="visible"/>
			</clipPath>
			
				<linearGradient id="SVGID_6_" gradientUnits="userSpaceOnUse" x1="-1273.2861" y1="1322.9453" x2="-1272.2861" y2="1322.9453" gradientTransform="matrix(-20.7114 -147.3693 -147.3693 20.7114 169330.3281 -214432.9375)">
				<stop  offset="0" style="stop-color:#000000"/>
				<stop  offset="0.0943" style="stop-color:#000000"/>
				<stop  offset="0.1515" style="stop-color:#00070E"/>
				<stop  offset="0.1961" style="stop-color:#00192A"/>
				<stop  offset="0.2366" style="stop-color:#002B42"/>
				<stop  offset="0.2746" style="stop-color:#003B58"/>
				<stop  offset="0.3108" style="stop-color:#004D70"/>
				<stop  offset="0.3458" style="stop-color:#006089"/>
				<stop  offset="0.3797" style="stop-color:#0075A6"/>
				<stop  offset="0.4119" style="stop-color:#008DC9"/>
				<stop  offset="0.4351" style="stop-color:#009CDE"/>
				<stop  offset="0.4795" style="stop-color:#49BBEA"/>
				<stop  offset="0.531" style="stop-color:#A4D9F4"/>
				<stop  offset="0.5736" style="stop-color:#DAEFFA"/>
				<stop  offset="0.605" style="stop-color:#F7FBFE"/>
				<stop  offset="0.6219" style="stop-color:#FFFFFF"/>
				<stop  offset="1" style="stop-color:#FFFFFF"/>
			</linearGradient>
			<polygon clip-path="url(#SVGID_5_)" fill="url(#SVGID_6_)" points="781.443,612.707 758.426,448.931 678.185,460.208 
				701.203,623.984 			"/>
		</g>
	</g>
	<g>
		
			<path fill="none" stroke="#020101" stroke-width="1.3" stroke-linecap="round" stroke-linejoin="round" stroke-miterlimit="10" d="
			M670.742,727.129c-24.745,3.307-47.401-13.556-50.709-38.299c-3.304-24.743,11.9-46.662,40.915-50.537
			c23.166-3.095,90.846-12.133,90.846-12.133c-18.331,5.021-31.828,12.002-36.972,29.119c-5.145,17.115-8.312,28.699-13.604,46.837
			c-4.248,14.559-12.651,46.062-21.55,59.354c-7.979,11.923-21.051,16.664-38.964,15.323"/>
		
			<path fill="none" stroke="#020101" stroke-width="1.3" stroke-linecap="round" stroke-linejoin="round" stroke-miterlimit="10" d="
			M751.793,626.16c-38.07,5.084-44.066,13.042-49.21,30.161c-5.144,17.116-8.312,28.7-13.604,46.838
			c-5.291,18.137-14.754,55.96-29.021,67.866c-14.271,11.903-37.057,5.043-39.512-13.088"/>
		<path fill="none" stroke="#020101" stroke-width="1.3" stroke-linecap="round" stroke-miterlimit="10" d="M689.889,699.969
			c0,0-8.891,1.133-22.766,2.901"/>
		<path fill="none" stroke="#020101" stroke-width="1.3" stroke-linecap="round" stroke-miterlimit="10" d="M695.475,616.869
			c9.601-3.534,17.533-7.184,23.037-14.496c14.752-19.607,15.314-35.482,12.594-70.241c-1.444-18.46-5.561-44.78,5.304-61.209
			c8.694-13.146,22.859-15.716,32.227-14.334"/>
		<path fill="none" stroke="#020101" stroke-width="1.3" stroke-linecap="round" stroke-miterlimit="10" d="M687.905,539.756
			c-17.371-3.609-35.369,6.088-40.287,24.062c-6.15,22.474,6.627,45.834,28.932,51.989c21.189,5.851,43.492-3.909,54.5-18.532
			c14.752-19.606,15.312-35.48,12.592-70.241c-1.737-22.191-8.645-58.507,14.992-68.859c11.391-4.991,25.304,2.499,28.398,14.027
			c1.42,5.285,0.67,11.188-1.807,15.738"/>
		<path fill="none" stroke="#020101" stroke-width="1.3" stroke-linecap="round" stroke-miterlimit="10" d="M839.102,505.199
			c0,0-4.189,13.407-6.688,19.745c-4.594,11.676-2.84,19.078-0.662,22.803c3.281,5.602,10.447,7.678,17.785,4.172
			c7.963-3.806,12.059-11.527,17.191-28.53c2.768-9.168,5.83-19.319,7.283-24.146"/>
		<path fill="none" stroke="#020101" stroke-width="1.3" stroke-linecap="round" stroke-miterlimit="10" d="M839.102,505.199
			c0,0-4.17,13.413-6.688,19.745c-5.65,14.22-23.662,19.471-41.699,9.404c-11.307-6.31-15.339-19.666-6.982-25.054
			c8.945-5.77,21.695,2.687,24.555,19.982c2.375,14.378-2.705,30.994-14.021,37.267c-7.713,4.275-18.267,2.789-23.914-6.312
			c-3.961-6.385-4.562-12.993-2.75-19.343c0.621-2.19,1.757-6.322,4.562-9.994"/>
	</g>
	<g>
		<g>
			<defs>
				<path id="SVGID_7_" d="M877.293,701.452c14.91,6.727,36.207,27.063,35.398,56.729c-0.41,15.036-6.809,29.457-17.555,39.565
					c-6.941,6.528-15.377,10.915-24.504,12.856c10.988-1.387,21.773-5.822,30.463-12.852c12.801-10.354,19.852-25.246,19.852-41.938
					c0-32.471-22.191-54.168-37.107-60.83l-2.498-1.153C879.961,696.53,878.605,699.092,877.293,701.452"/>
			</defs>
			<clipPath id="SVGID_8_">
				<use xlink:href="#SVGID_7_"  overflow="visible"/>
			</clipPath>
			
				<linearGradient id="SVGID_9_" gradientUnits="userSpaceOnUse" x1="-1287.1782" y1="1328.5059" x2="-1286.1779" y2="1328.5059" gradientTransform="matrix(-63.5716 -53.3429 -53.3429 63.5716 -10039.4141 -152342.7656)">
				<stop  offset="0" style="stop-color:#000000"/>
				<stop  offset="0.0943" style="stop-color:#000000"/>
				<stop  offset="0.1515" style="stop-color:#00070E"/>
				<stop  offset="0.1961" style="stop-color:#00192A"/>
				<stop  offset="0.2366" style="stop-color:#002B42"/>
				<stop  offset="0.2746" style="stop-color:#003B58"/>
				<stop  offset="0.3108" style="stop-color:#004D70"/>
				<stop  offset="0.3458" style="stop-color:#006089"/>
				<stop  offset="0.3797" style="stop-color:#0075A6"/>
				<stop  offset="0.4119" style="stop-color:#008DC9"/>
				<stop  offset="0.4351" style="stop-color:#009CDE"/>
				<stop  offset="0.4795" style="stop-color:#49BBEA"/>
				<stop  offset="0.531" style="stop-color:#A4D9F4"/>
				<stop  offset="0.5736" style="stop-color:#DAEFFA"/>
				<stop  offset="0.605" style="stop-color:#F7FBFE"/>
				<stop  offset="0.6219" style="stop-color:#FFFFFF"/>
				<stop  offset="1" style="stop-color:#FFFFFF"/>
			</linearGradient>
			<polygon clip-path="url(#SVGID_8_)" fill="url(#SVGID_9_)" points="978.447,742.08 891.422,669.059 813.135,762.357 
				900.158,835.38 			"/>
		</g>
	</g>
	<g>
		<path fill="none" stroke="#020101" stroke-width="1.3" stroke-linecap="round" stroke-miterlimit="10" d="M876.418,701.746
			c9.262-16.467,21.039-44.221,26.449-54.076l-0.076,0.012c0,0-22.365,2.982-27.055,3.607c-15.59,2.082-23.354,26.521-31.801,40.867
			c-8.004,13.594-13.885,16.486-18.486,17.103c-11.932,1.591-15.871-11.142-12.998-17.813c3.352-7.784,6.91-16.592,9.672-23.543"/>
		<path fill="none" stroke="#020101" stroke-width="1.24" stroke-linecap="round" stroke-miterlimit="10" d="M829.85,647.604
			c1.189-2.939,4.15-10.239,5.17-12.821"/>
		<path fill="none" stroke="#020101" stroke-width="1.24" stroke-linecap="round" stroke-miterlimit="10" d="M702.307,698.374
			l31.888-4.437c0,0,21.825-3.024,27.764-15.781c5.94-12.756-11.524-20.996-20.955-5.253c-7.209,12.043-15.623,36.182,4.008,44.825
			c8.004,3.521,26.482,0.36,40.709-29.992c6.4-13.651,14.928-33.042,22.381-56.294c7.459-23.252,5.781-31.111-0.523-33.189
			c-6.311-2.077-17.178,4.482-25.176,41.747c-3.953,18.416-5.469,45.729-3.238,61.568c2.232,15.837,20.564,15.959,29.215-1.42
			c4.389-8.812,13.861-32.424,17.686-42.076"/>
		<path fill="none" stroke="#020101" stroke-width="1.3" stroke-linecap="round" stroke-miterlimit="10" d="M876.418,701.744
			c14.586,6.281,36.469,26.517,35.652,56.422c-0.777,28.561-23.219,53.977-54.127,52.927c-29.74-1.01-53.229-24.773-50.762-54.319
			c0.883-10.59,3.586-18.184,7.611-25.766c-13.072,1.747-57.793,7.357-78.91,10.178c-21.118,2.821-29.521,7.303-36.171,17.863"/>
		<path fill="none" stroke="#020101" stroke-width="1.3" stroke-linecap="round" stroke-miterlimit="10" d="M851.771,810.545
			c31.215,6.673,69.838-14.891,69.838-54.727c0-32.562-22.166-54.59-37.498-61.438l-3.031-1.398"/>
	</g>
	<g>
		<path fill="none" stroke="#020101" stroke-width="1.3" stroke-linecap="round" stroke-miterlimit="10" d="M623.729,701.377
			c-10.897-22.486-17.012-47.727-17.012-74.392c0-89.776,69.271-163.372,157.277-170.257"/>
		
			<path fill="none" stroke="#020101" stroke-width="1.3" stroke-linecap="round" stroke-linejoin="round" stroke-miterlimit="10" d="
			M866.557,523.971c-4.049,12.88-11.146,42.043-22.133,68.479c-12.934,31.129-47.221,42.901-67.267,34.312
			c-21.558-9.23-19.992-39.989,11.408-45.425l147.273-18.47l0.006,0.009c8.021,19.795,12.439,41.437,12.439,64.108
			c0,37.588-12.145,72.341-32.723,100.548"/>
		<path fill="#020101" d="M689.493,784.542l-3.618-2.084c-1.356-0.781-1.83-2.255-1.114-3.498c0.185-0.319,0.59-0.42,0.91-0.235
			c0.309,0.178,0.426,0.579,0.242,0.898c-0.4,0.696,0.025,1.352,0.62,1.693l3.616,2.084c1.493,0.86,2.786-1.436,1.312-2.281
			c-1.185-0.684-2.36-1.36-3.536-2.037c-2.987-1.725-0.365-6.305,2.635-4.576l2.865,1.649c0.443,0.257,0.793,0.577,1.023,0.939
			c0.217-0.163,0.506-0.193,0.746-0.057c0.308,0.177,0.421,0.591,0.233,0.91l-0.906,1.573c-0.178,0.31-0.59,0.42-0.896,0.242
			c-0.32-0.184-0.434-0.598-0.254-0.904c0.387-0.674-0.058-1.247-0.605-1.563l-2.861-1.649c-1.495-0.86-2.798,1.428-1.315,2.282
			c1.174,0.675,2.353,1.354,3.536,2.036C695.104,781.684,692.493,786.27,689.493,784.542"/>
		<path fill="#020101" d="M717.283,788.074l-0.522,1.294c-0.137,0.342-0.514,0.502-0.854,0.362c-0.33-0.134-0.501-0.516-0.362-0.855
			l0.274-0.684l-2.194-0.888l-2.466,6.102l0.562,0.227c0.342,0.14,0.494,0.526,0.363,0.856c-0.139,0.342-0.518,0.502-0.857,0.363
			l-2.342-0.945c-0.341-0.139-0.502-0.517-0.365-0.857c0.136-0.329,0.518-0.502,0.857-0.361l0.561,0.226l2.467-6.101l-2.198-0.887
			l-0.275,0.684c-0.136,0.342-0.524,0.496-0.854,0.362c-0.342-0.139-0.502-0.515-0.363-0.856l0.521-1.293
			c0.139-0.342,0.516-0.5,0.856-0.362l6.832,2.761C717.262,787.355,717.42,787.734,717.283,788.074"/>
		<path fill="#020101" d="M741.61,795.172c-0.084,0.346-0.438,0.57-0.795,0.483l-0.64-0.154l-1.239,5.111
			c-0.345,1.405-1.771,2.275-3.179,1.935l-2.25-0.546c-1.401-0.342-2.274-1.771-1.934-3.176l1.241-5.111l-0.549-0.134
			c-0.346-0.085-0.569-0.45-0.485-0.794c0.088-0.358,0.45-0.567,0.795-0.483l2.453,0.596c0.356,0.086,0.584,0.438,0.496,0.798
			c-0.082,0.345-0.447,0.566-0.808,0.479l-0.61-0.148l-1.243,5.111c-0.17,0.701,0.253,1.414,0.956,1.586l2.249,0.547
			c0.702,0.17,1.402-0.269,1.574-0.973l1.24-5.111l-0.522-0.127c-0.355-0.088-0.58-0.451-0.496-0.798
			c0.087-0.355,0.449-0.566,0.807-0.479l2.455,0.595C741.483,794.465,741.698,794.814,741.61,795.172"/>
		<path fill="#020101" d="M760.147,806.568c-1.103-0.104-2.755-0.264-3.855-0.367c-0.369-0.034-0.627-0.363-0.594-0.719
			c0.035-0.365,0.352-0.627,0.719-0.593l0.656,0.062l0.621-6.544l-0.654-0.062c-0.369-0.033-0.627-0.363-0.592-0.73
			c0.033-0.354,0.35-0.629,0.717-0.594l3.854,0.367C767.026,797.96,766.152,807.141,760.147,806.568 M760.895,798.713l-1.889-0.18
			l-0.623,6.544l1.875,0.179C764.559,805.664,765.168,799.121,760.895,798.713"/>
		<path fill="#020101" d="M784.371,806.613c0.008,0.354-0.283,0.664-0.641,0.674l-2.537,0.072c-0.354,0.009-0.664-0.285-0.674-0.643
			c-0.01-0.365,0.285-0.663,0.641-0.673l0.604-0.017l-0.186-6.586l-0.604,0.017c-0.354,0.009-0.666-0.271-0.676-0.639
			c-0.01-0.355,0.285-0.667,0.639-0.677l2.537-0.069c0.355-0.011,0.666,0.284,0.678,0.639c0.008,0.368-0.285,0.666-0.641,0.676
			l-0.605,0.017l0.184,6.587l0.604-0.019C784.051,805.964,784.359,806.245,784.371,806.613"/>
		<path fill="#020101" d="M803.676,795.795c6.486-1.001,8.008,8.859,1.525,9.86C798.719,806.658,797.193,796.798,803.676,795.795
			 M805,804.357c4.768-0.738,3.646-8-1.123-7.264C799.109,797.832,800.232,805.094,805,804.357"/>
	</g>
</g>
</svg>
