<?xml version="1.0" encoding="utf-8"?>
<!-- Generator: Adobe Illustrator 22.0.1, SVG Export Plug-In . SVG Version: 6.00 Build 0)  -->
<svg version="1.1" id="Layer_1" xmlns="http://www.w3.org/2000/svg" xmlns:xlink="http://www.w3.org/1999/xlink" x="0px" y="0px"
	 viewBox="0 0 32 32" style="enable-background:new 0 0 32 32;" xml:space="preserve">
<style type="text/css">
	.st0{display:none;fill:#FFFFFF;stroke:#23201F;stroke-miterlimit:10;}
	.st1{fill:#23201F;}
	.st2{fill:none;stroke:#FFFFFF;stroke-width:3;stroke-miterlimit:10;}
</style>
<g>
	<g id="_x3C_siluete_x3E_">
		<rect x="-10.4" y="-7.7" class="st0" width="51.7" height="168.4"/>
		<path class="st1" d="M15.9,0.2C7.1,0.2,0.1,7.3,0.1,16.1c0,6.1,3.4,11.3,8.4,14V13.9h0c0-4.6,3.3-8.3,7.4-8.3
			c4.1,0,7.4,3.7,7.4,8.3h0v16.2c5-2.7,8.4-7.9,8.4-14C31.7,7.3,24.6,0.2,15.9,0.2z"/>
		<path id="SVGID_1_" class="st2" d="M0.1,16.1c0,8.7,7.1,15.8,15.8,15.8s15.8-7.1,15.8-15.8c0-8.7-7.1-15.8-15.8-15.8
			S0.1,7.3,0.1,16.1"/>
	</g>
	<path id="_x3C_Smile_x3E_" class="st1" d="M12.7,17.6c-0.1,0-0.1,0-0.2,0.1c-0.1,0.1-0.2,0.1-0.2,0.2c0,0.1,0,0.2,0,0.3
		c0.7,1.3,2.2,2.2,3.7,2.2c1.5,0,3-0.8,3.7-2.2c0.1-0.1,0.1-0.2,0-0.3c0-0.1-0.1-0.2-0.2-0.2c-0.1,0-0.1-0.1-0.2-0.1
		c-0.1,0-0.3,0.1-0.3,0.2c-0.6,1.1-1.8,1.8-3,1.8c-1.3,0-2.4-0.7-3-1.8C13,17.7,12.9,17.6,12.7,17.6z"/>
	<path id="_x3C_eye_x5F_l_x3E_" class="st1" d="M14,13.5c-0.3,0-0.6,0.3-0.6,0.6c0,0.3,0.3,0.6,0.6,0.6c0.3,0,0.6-0.3,0.6-0.6
		C14.6,13.8,14.3,13.5,14,13.5z"/>
	<path id="_x3C_eye_x5F_r_x3E_" class="st1" d="M18.2,13.5c-0.3,0-0.6,0.3-0.6,0.6c0,0.3,0.3,0.6,0.6,0.6c0.3,0,0.6-0.3,0.6-0.6
		C18.8,13.8,18.6,13.5,18.2,13.5z"/>
</g>
</svg>
