<?xml version="1.0" encoding="utf-8"?>
<!-- Generator: Adobe Illustrator 22.0.1, SVG Export Plug-In . SVG Version: 6.00 Build 0)  -->
<svg version="1.1" id="Layer_1" xmlns="http://www.w3.org/2000/svg" xmlns:xlink="http://www.w3.org/1999/xlink" x="0px" y="0px"
	 viewBox="0 0 500 500" style="enable-background:new 0 0 500 500;" xml:space="preserve">
<style type="text/css">
	.st0{display:none;fill:#070606;}
	.st1{clip-path:url(#SVGID_2_);fill:url(#SVGID_3_);}
	.st2{clip-path:url(#SVGID_5_);fill:url(#SVGID_6_);}
	.st3{fill:none;stroke:#FFFFFF;stroke-width:1.3;stroke-linecap:round;stroke-linejoin:round;stroke-miterlimit:10;}
	.st4{fill:none;stroke:#F9F4F4;stroke-width:1.3;stroke-linecap:round;stroke-miterlimit:10;}
	.st5{fill:none;stroke:#FFFFFF;stroke-width:1.3;stroke-linecap:round;stroke-miterlimit:10;}
	.st6{clip-path:url(#SVGID_8_);fill:url(#SVGID_9_);}
	.st7{fill:none;stroke:#FFFFFF;stroke-miterlimit:10;}
	.st8{fill:none;stroke:#FFFFFF;stroke-width:1.24;stroke-linecap:round;stroke-miterlimit:10;}
	.st9{fill:#FFFFFF;}
</style>
<g>
	<g>
		<g>
			<rect x="-133.6" y="-167.1" class="st0" width="859.5" height="936.4"/>
			<g>
				<defs>
					<path id="SVGID_1_" d="M171.3,246.4c-8.6,6-12.3,13.8-15.8,25.3c-4.1,13.8-7.3,25-10.7,36.8c-2.2,7.6-4.5,15.6-7.2,24.8
						c-1,3.3-1.9,6.8-3,10.6c-6.1,22.2-19.1,65.5-35.5,79.1c-3.3,2.7-6.9,4.7-10.8,6.1c16-1.5,27.7-8,35.5-19.7
						c9.6-14.3,20.5-49.9,25.3-67.3c1-3.7,2-7.2,3-10.6c0.5-1.6,0.9-3.2,1.4-4.7c0-0.1,0-0.3,0.1-0.4c2.1-7.2,3.9-13.6,5.7-19.8
						c3.4-11.8,6.6-23,10.7-36.7c5.9-19.5,19.6-29.1,38.7-35.6C190.7,237.2,179,241.1,171.3,246.4"/>
				</defs>
				<clipPath id="SVGID_2_">
					<use xlink:href="#SVGID_1_"  style="overflow:visible;"/>
				</clipPath>
				
					<linearGradient id="SVGID_3_" gradientUnits="userSpaceOnUse" x1="-1097.9971" y1="-998.829" x2="-1096.9971" y2="-998.829" gradientTransform="matrix(-24.5501 -174.683 174.683 -24.5501 147683.3438 -215903.5469)">
					<stop  offset="0" style="stop-color:#000000"/>
					<stop  offset="9.430000e-02" style="stop-color:#000000"/>
					<stop  offset="0.1515" style="stop-color:#00070E"/>
					<stop  offset="0.1961" style="stop-color:#00192A"/>
					<stop  offset="0.2366" style="stop-color:#002B42"/>
					<stop  offset="0.2746" style="stop-color:#003B58"/>
					<stop  offset="0.3108" style="stop-color:#004D70"/>
					<stop  offset="0.3458" style="stop-color:#006089"/>
					<stop  offset="0.3797" style="stop-color:#0075A6"/>
					<stop  offset="0.4119" style="stop-color:#008DC9"/>
					<stop  offset="0.4351" style="stop-color:#009CDE"/>
					<stop  offset="0.4795" style="stop-color:#49BBEA"/>
					<stop  offset="0.531" style="stop-color:#A4D9F4"/>
					<stop  offset="0.5736" style="stop-color:#DAEFFA"/>
					<stop  offset="0.605" style="stop-color:#F7FBFE"/>
					<stop  offset="0.6219" style="stop-color:#FFFFFF"/>
					<stop  offset="1" style="stop-color:#FFFFFF"/>
				</linearGradient>
				<polygon class="st1" points="235.6,425.3 206.4,217.6 61.5,238 90.7,445.7 				"/>
			</g>
		</g>
	</g>
	<g>
		<g>
			<g>
				<defs>
					<path id="SVGID_4_" d="M199.9,28c-12.4,18.7-9.8,47.6-7.7,70.7c0.3,3.3,0.6,6.3,0.8,9.3c3.6,45.5,3,66.7-16.7,93
						c-6.4,8.5-15.6,13.4-24.9,17.2c16.9-3.6,31.6-13.4,40.1-24.8c19.4-25.8,19.9-46.8,16.4-91.9c-0.3-3.5-0.6-7.2-1-11.1
						c-2.8-28.7-6.7-68.1,21.2-80.3c0.5-0.2,1-0.4,1.6-0.6C219.1,10.7,207.8,16.1,199.9,28"/>
				</defs>
				<clipPath id="SVGID_5_">
					<use xlink:href="#SVGID_4_"  style="overflow:visible;"/>
				</clipPath>
				
					<linearGradient id="SVGID_6_" gradientUnits="userSpaceOnUse" x1="-1097.5969" y1="-999.5036" x2="-1096.5969" y2="-999.5036" gradientTransform="matrix(-27.2518 -193.907 193.907 -27.2518 164103.3906 -239858.9375)">
					<stop  offset="0" style="stop-color:#000000"/>
					<stop  offset="9.430000e-02" style="stop-color:#000000"/>
					<stop  offset="0.1515" style="stop-color:#00070E"/>
					<stop  offset="0.1961" style="stop-color:#00192A"/>
					<stop  offset="0.2366" style="stop-color:#002B42"/>
					<stop  offset="0.2746" style="stop-color:#003B58"/>
					<stop  offset="0.3108" style="stop-color:#004D70"/>
					<stop  offset="0.3458" style="stop-color:#006089"/>
					<stop  offset="0.3797" style="stop-color:#0075A6"/>
					<stop  offset="0.4119" style="stop-color:#008DC9"/>
					<stop  offset="0.4351" style="stop-color:#009CDE"/>
					<stop  offset="0.4795" style="stop-color:#49BBEA"/>
					<stop  offset="0.531" style="stop-color:#A4D9F4"/>
					<stop  offset="0.5736" style="stop-color:#DAEFFA"/>
					<stop  offset="0.605" style="stop-color:#F7FBFE"/>
					<stop  offset="0.6219" style="stop-color:#FFFFFF"/>
					<stop  offset="1" style="stop-color:#FFFFFF"/>
				</linearGradient>
				<polygon class="st2" points="258.5,214.1 228.2,-1.4 122.6,13.4 152.9,228.9 				"/>
			</g>
		</g>
	</g>
	<g>
		<path class="st3" d="M112.8,364.6c-32.6,4.4-62.4-17.8-66.7-50.4c-4.3-32.6,15.7-61.4,53.8-66.5c30.5-4.1,119.5-16,119.5-16
			c-24.1,6.6-41.9,15.8-48.6,38.3c-6.8,22.5-10.9,37.8-17.9,61.6c-5.6,19.2-16.6,60.6-28.4,78.1c-10.5,15.7-27.7,21.9-51.3,20.2"/>
		<path class="st3" d="M219.5,231.8c-50.1,6.7-58,17.2-64.8,39.7c-6.8,22.5-10.9,37.8-17.9,61.6c-7,23.9-19.4,73.6-38.2,89.3
			c-18.8,15.7-48.8,6.6-52-17.2"/>
		<path class="st4" d="M138,328.9c0,0-11.7,1.5-30,3.8"/>
		<path class="st5" d="M145.4,219.6c12.6-4.7,23.1-9.5,30.3-19.1c19.4-25.8,20.2-46.7,16.6-92.4c-1.9-24.3-7.3-58.9,7-80.5
			c11.4-17.3,30.1-20.7,42.4-18.9"/>
		<path class="st5" d="M135.4,118.1c-22.9-4.7-46.5,8-53,31.7c-8.1,29.6,8.7,60.3,38.1,68.4c27.9,7.7,57.2-5.1,71.7-24.4
			c19.4-25.8,20.1-46.7,16.6-92.4c-2.3-29.2-11.4-77,19.7-90.6c15-6.6,33.3,3.3,37.4,18.5c1.9,7,0.9,14.7-2.4,20.7"/>
		<path class="st5" d="M334.3,72.6c0,0-5.5,17.6-8.8,26c-6,15.4-3.7,25.1-0.9,30c4.3,7.4,13.7,10.1,23.4,5.5
			c10.5-5,15.9-15.2,22.6-37.5c3.6-12.1,7.7-25.4,9.6-31.8"/>
		<path class="st5" d="M334.3,72.6c0,0-5.5,17.6-8.8,26c-7.4,18.7-31.1,25.6-54.9,12.4c-14.9-8.3-20.2-25.9-9.2-33
			c11.8-7.6,28.5,3.5,32.3,26.3c3.1,18.9-3.6,40.8-18.4,49c-10.1,5.6-24,3.7-31.5-8.3c-5.2-8.4-6-17.1-3.6-25.5
			c0.8-2.9,2.3-8.3,6-13.2"/>
	</g>
	<g>
		<g>
			<g>
				<defs>
					<path id="SVGID_7_" d="M384.6,330.9c19.6,8.9,47.6,35.6,46.6,74.6c-0.5,19.8-9,38.8-23.1,52.1c-9.1,8.6-20.2,14.4-32.2,16.9
						c14.5-1.8,28.6-7.7,40.1-16.9c16.8-13.6,26.1-33.2,26.1-55.2c0-42.7-29.2-71.3-48.8-80l-3.3-1.5
						C388.1,324.4,386.3,327.8,384.6,330.9"/>
				</defs>
				<clipPath id="SVGID_8_">
					<use xlink:href="#SVGID_7_"  style="overflow:visible;"/>
				</clipPath>
				
					<linearGradient id="SVGID_9_" gradientUnits="userSpaceOnUse" x1="-1106.1066" y1="-1001.7891" x2="-1105.1062" y2="-1001.7891" gradientTransform="matrix(-83.6468 -70.188 70.188 -83.6468 -21765.0879 -161005.1562)">
					<stop  offset="0" style="stop-color:#000000"/>
					<stop  offset="9.430000e-02" style="stop-color:#000000"/>
					<stop  offset="0.1515" style="stop-color:#00070E"/>
					<stop  offset="0.1961" style="stop-color:#00192A"/>
					<stop  offset="0.2366" style="stop-color:#002B42"/>
					<stop  offset="0.2746" style="stop-color:#003B58"/>
					<stop  offset="0.3108" style="stop-color:#004D70"/>
					<stop  offset="0.3458" style="stop-color:#006089"/>
					<stop  offset="0.3797" style="stop-color:#0075A6"/>
					<stop  offset="0.4119" style="stop-color:#008DC9"/>
					<stop  offset="0.4351" style="stop-color:#009CDE"/>
					<stop  offset="0.4795" style="stop-color:#49BBEA"/>
					<stop  offset="0.531" style="stop-color:#A4D9F4"/>
					<stop  offset="0.5736" style="stop-color:#DAEFFA"/>
					<stop  offset="0.605" style="stop-color:#F7FBFE"/>
					<stop  offset="0.6219" style="stop-color:#FFFFFF"/>
					<stop  offset="1" style="stop-color:#FFFFFF"/>
				</linearGradient>
				<polygon class="st6" points="517.7,384.3 403.2,288.2 300.2,411 414.7,507.1 				"/>
			</g>
		</g>
	</g>
	<g>
		<path class="st7" d="M383.4,331.2c12.2-21.7,27.7-58.2,34.8-71.2l-0.1,0c0,0-29.4,3.9-35.6,4.7c-20.5,2.7-30.7,34.9-41.8,53.8
			c-10.5,17.9-18.3,21.7-24.3,22.5c-15.7,2.1-20.9-14.7-17.1-23.4c4.4-10.2,9.1-21.8,12.7-31"/>
		<path class="st8" d="M322.2,260c1.6-3.9,5.5-13.5,6.8-16.9"/>
		<path class="st7" d="M154.4,326.8l42-5.8c0,0,28.7-4,36.5-20.8c7.8-16.8-15.2-27.6-27.6-6.9c-9.5,15.8-20.6,47.6,5.3,59
			c10.5,4.6,34.8,0.5,53.6-39.5c8.4-18,19.6-43.5,29.4-74.1c9.8-30.6,7.6-40.9-0.7-43.7c-8.3-2.7-22.6,5.9-33.1,54.9
			c-5.2,24.2-7.2,60.2-4.3,81c2.9,20.8,27.1,21,38.4-1.9c5.8-11.6,18.2-42.7,23.3-55.4"/>
		<path class="st7" d="M383.4,331.2c19.2,8.3,48,34.9,46.9,74.2c-1,37.6-30.6,71-71.2,69.6c-39.1-1.3-70-32.6-66.8-71.5
			c1.2-13.9,4.7-23.9,10-33.9c-17.2,2.3-76,9.7-103.8,13.4c-27.8,3.7-38.8,9.6-47.6,23.5"/>
		<path class="st7" d="M351,474.4c41.1,8.8,91.9-19.6,91.9-72c0-42.8-29.2-71.8-49.3-80.8l-4-1.8"/>
	</g>
	<g>
		<path class="st5" d="M51,330.8c-14.3-29.6-22.4-62.8-22.4-97.9c0-118.1,91.1-215,206.9-224"/>
		<path class="st3" d="M370.5,97.3c-5.3,16.9-14.7,55.3-29.1,90.1c-17,41-62.1,56.4-88.5,45.1c-28.4-12.1-26.3-52.6,15-59.8
			l193.8-24.3l0,0c10.6,26,16.4,54.5,16.4,84.4c0,49.5-16,95.2-43.1,132.3"/>
		<path class="st9" d="M137.5,440.2l-4.8-2.7c-1.8-1-2.4-3-1.5-4.6c0.2-0.4,0.8-0.6,1.2-0.3c0.4,0.2,0.6,0.8,0.3,1.2
			c-0.5,0.9,0,1.8,0.8,2.2l4.8,2.7c2,1.1,3.7-1.9,1.7-3c-1.6-0.9-3.1-1.8-4.7-2.7c-3.9-2.3-0.5-8.3,3.5-6l3.8,2.2
			c0.6,0.3,1,0.8,1.3,1.2c0.3-0.2,0.7-0.3,1-0.1c0.4,0.2,0.6,0.8,0.3,1.2l-1.2,2.1c-0.2,0.4-0.8,0.6-1.2,0.3
			c-0.4-0.2-0.6-0.8-0.3-1.2c0.5-0.9-0.1-1.6-0.8-2.1l-3.8-2.2c-2-1.1-3.7,1.9-1.7,3c1.5,0.9,3.1,1.8,4.7,2.7
			C144.9,436.4,141.4,442.5,137.5,440.2"/>
		<path class="st9" d="M174.1,444.8l-0.7,1.7c-0.2,0.4-0.7,0.7-1.1,0.5c-0.4-0.2-0.7-0.7-0.5-1.1l0.4-0.9l-2.9-1.2l-3.2,8l0.7,0.3
			c0.4,0.2,0.7,0.7,0.5,1.1c-0.2,0.4-0.7,0.7-1.1,0.5l-3.1-1.2c-0.4-0.2-0.7-0.7-0.5-1.1c0.2-0.4,0.7-0.7,1.1-0.5l0.7,0.3l3.2-8
			l-2.9-1.2l-0.4,0.9c-0.2,0.4-0.7,0.7-1.1,0.5c-0.4-0.2-0.7-0.7-0.5-1.1l0.7-1.7c0.2-0.4,0.7-0.7,1.1-0.5l9,3.6
			C174,443.9,174.2,444.4,174.1,444.8"/>
		<path class="st9" d="M206.1,454.2c-0.1,0.5-0.6,0.8-1,0.6l-0.8-0.2l-1.6,6.7c-0.5,1.8-2.3,3-4.2,2.5l-3-0.7
			c-1.8-0.4-3-2.3-2.5-4.2l1.6-6.7l-0.7-0.2c-0.5-0.1-0.7-0.6-0.6-1c0.1-0.5,0.6-0.7,1-0.6l3.2,0.8c0.5,0.1,0.8,0.6,0.7,1
			c-0.1,0.5-0.6,0.7-1.1,0.6l-0.8-0.2l-1.6,6.7c-0.2,0.9,0.3,1.9,1.3,2.1l3,0.7c0.9,0.2,1.8-0.4,2.1-1.3l1.6-6.7l-0.7-0.2
			c-0.5-0.1-0.8-0.6-0.7-1c0.1-0.5,0.6-0.7,1.1-0.6l3.2,0.8C205.9,453.2,206.2,453.7,206.1,454.2"/>
		<path class="st9" d="M230.5,469.2c-1.5-0.1-3.6-0.3-5.1-0.5c-0.5,0-0.8-0.5-0.8-0.9c0-0.5,0.5-0.8,0.9-0.8l0.9,0.1l0.8-8.6
			l-0.9-0.1c-0.5,0-0.8-0.5-0.8-1c0-0.5,0.5-0.8,0.9-0.8l5.1,0.5C239.5,457.8,238.4,469.9,230.5,469.2 M231.4,458.8l-2.5-0.2
			l-0.8,8.6l2.5,0.2C236.3,468,237.1,459.4,231.4,458.8"/>
		<path class="st9" d="M262.3,469.2c0,0.5-0.4,0.9-0.8,0.9l-3.3,0.1c-0.5,0-0.9-0.4-0.9-0.8c0-0.5,0.4-0.9,0.8-0.9l0.8,0l-0.2-8.7
			l-0.8,0c-0.5,0-0.9-0.4-0.9-0.8c0-0.5,0.4-0.9,0.8-0.9l3.3-0.1c0.5,0,0.9,0.4,0.9,0.8c0,0.5-0.4,0.9-0.8,0.9l-0.8,0l0.2,8.7l0.8,0
			C261.9,468.4,262.3,468.7,262.3,469.2"/>
		<path class="st9" d="M287.7,455c8.5-1.3,10.5,11.7,2,13C281.2,469.3,279.2,456.3,287.7,455 M289.5,466.3c6.3-1,4.8-10.5-1.5-9.6
			C281.7,457.7,283.2,467.2,289.5,466.3"/>
	</g>
</g>
</svg>
